<!DOCTYPE svg PUBLIC "-//W3C//DTD SVG 20010904//EN" "http://www.w3.org/TR/2001/REC-SVG-20010904/DTD/svg10.dtd">
<svg version="1.0" xmlns="http://www.w3.org/2000/svg" width="61px" height="47px" viewBox="0 0 610 470" preserveAspectRatio="xMidYMid meet">
<g id="layer101" fill="#84b94d" stroke="none">
 <path d="M60 444 c-44 -37 -60 -75 -60 -139 0 -93 62 -191 171 -271 30 -22 57 -34 71 -32 41 6 33 36 -26 98 -31 32 -56 62 -56 67 0 5 20 19 45 31 55 27 85 72 85 130 0 88 -55 142 -147 142 -41 0 -58 -5 -83 -26z"/>
 <path d="M369 430 c-83 -87 -60 -217 59 -333 104 -102 139 -118 166 -74 9 15 4 24 -36 60 -25 23 -54 54 -63 69 -16 26 -16 26 19 38 19 6 49 27 66 46 26 31 30 42 30 96 0 57 -2 63 -39 99 -37 37 -42 39 -101 39 -61 0 -65 -2 -101 -40z"/>
 </g>

</svg>