<!DOCTYPE svg PUBLIC "-//W3C//DTD SVG 20010904//EN" "http://www.w3.org/TR/2001/REC-SVG-20010904/DTD/svg10.dtd">
<svg version="1.0" xmlns="http://www.w3.org/2000/svg" width="77px" height="89px" viewBox="0 0 770 890" preserveAspectRatio="xMidYMid meet">
<g id="layer101" fill="#6ba53a" stroke="none">
 <path d="M0 445 l0 -445 350 0 350 0 0 114 c0 73 4 117 11 122 6 3 20 25 30 48 33 73 20 172 -31 229 l-28 32 44 87 c24 48 44 94 44 102 0 8 -16 20 -35 26 -35 11 -35 12 -35 71 l0 59 -350 0 -350 0 0 -445z m660 374 c0 -28 -3 -31 -24 -25 -23 6 -25 2 -48 -97 -22 -95 -25 -102 -49 -105 -25 -3 -27 0 -49 103 -14 62 -28 104 -34 102 -6 -3 -44 -15 -84 -28 -57 -18 -71 -27 -66 -39 3 -8 8 -21 11 -27 4 -10 -16 -13 -81 -13 -85 0 -86 0 -86 -25 0 -25 0 -25 98 -25 l99 0 22 -48 23 -48 -24 -37 -23 -36 -97 -1 c-98 0 -98 0 -98 -25 0 -25 1 -25 88 -25 l87 0 1 -53 c0 -28 8 -67 18 -84 l17 -33 -106 0 -105 0 0 -25 0 -25 124 0 c104 0 131 -3 171 -21 38 -17 61 -20 114 -17 36 3 74 8 84 13 15 6 17 0 17 -64 l0 -71 -310 0 -310 0 0 405 0 405 310 0 310 0 0 -31z m-215 -160 c13 -52 15 -73 6 -82 -6 -6 -12 -9 -13 -6 -7 10 -68 140 -68 143 0 5 26 13 46 15 7 0 20 -31 29 -70z m263 56 c2 -2 -13 -35 -32 -74 -24 -47 -40 -69 -50 -65 -11 4 -11 15 1 67 22 94 20 90 51 82 15 -4 28 -8 30 -10z m-126 -175 c75 -21 128 -87 128 -160 0 -183 -240 -241 -319 -77 -26 55 -26 89 0 144 27 56 77 90 149 102 3 1 22 -4 42 -9z"/>
 <path d="M455 449 c7 -49 6 -52 -30 -89 l-38 -39 52 -7 c50 -6 54 -9 74 -50 11 -24 24 -44 27 -44 3 0 16 20 27 44 20 41 24 44 73 50 l52 7 -37 40 c-34 38 -35 42 -29 89 4 28 3 50 -1 50 -4 0 -24 -9 -45 -21 l-37 -21 -41 21 c-23 12 -44 21 -48 21 -3 0 -3 -23 1 -51z m115 -56 c0 -6 3 -18 6 -27 4 -11 1 -16 -10 -16 -9 0 -16 -5 -16 -10 0 -9 -10 -5 -49 17 -2 2 2 9 8 17 7 8 10 19 7 24 -3 5 8 9 24 8 17 -1 30 -6 30 -13z"/>
 </g>

</svg>