<!DOCTYPE svg PUBLIC "-//W3C//DTD SVG 20010904//EN" "http://www.w3.org/TR/2001/REC-SVG-20010904/DTD/svg10.dtd">
<svg version="1.0" xmlns="http://www.w3.org/2000/svg" width="94px" height="93px" viewBox="0 0 940 930" preserveAspectRatio="xMidYMid meet">
<g id="layer101" fill="#6ba53a" stroke="none">
 <path d="M0 905 c0 -24 3 -25 55 -25 l55 0 0 -174 c0 -149 2 -175 16 -180 9 -3 63 -6 121 -6 93 0 109 -3 136 -22 24 -17 46 -23 87 -23 41 0 63 6 87 23 43 30 143 33 143 2 0 -17 -8 -19 -73 -22 l-72 -3 -3 -114 c-2 -75 1 -118 9 -127 9 -11 46 -14 168 -14 86 0 162 4 169 8 9 7 12 39 10 128 l-3 119 -72 3 c-65 3 -73 5 -73 22 0 13 7 20 19 20 51 0 51 0 51 186 l0 174 55 0 c52 0 55 1 55 25 l0 25 -470 0 -470 0 0 -25z m780 -175 l0 -150 -85 0 c-84 0 -85 0 -85 25 0 77 -61 135 -140 135 -79 0 -140 -58 -140 -135 0 -25 -1 -25 -85 -25 l-85 0 0 150 0 150 310 0 310 0 0 -150z m-259 -69 c41 -41 36 -96 -10 -120 -16 -9 -17 -7 -13 14 3 16 11 25 23 25 14 0 19 7 19 25 0 18 -5 25 -19 25 -13 0 -21 8 -23 23 -2 16 -10 22 -28 22 -18 0 -26 -6 -28 -22 -2 -15 -10 -23 -23 -23 -14 0 -19 -7 -19 -25 0 -18 5 -25 19 -25 12 0 20 -9 23 -25 4 -21 3 -23 -13 -14 -23 12 -39 41 -39 69 0 28 52 80 80 80 12 0 35 -13 51 -29z m329 -306 l0 -75 -120 0 -120 0 0 75 0 75 120 0 120 0 0 -75z"/>
 <path d="M11 606 c-10 -11 -2 -35 39 -115 65 -130 83 -143 193 -139 77 3 80 4 113 41 40 44 43 80 7 85 -13 2 -23 -2 -23 -8 0 -6 -11 -22 -25 -35 -20 -21 -34 -25 -83 -25 -71 0 -83 11 -137 120 -46 91 -60 105 -84 76z"/>
 <path d="M157 296 c-21 -14 -54 -26 -79 -28 l-43 -3 -3 -45 c-5 -70 6 -108 46 -152 46 -51 85 -68 157 -68 103 0 176 60 196 161 8 39 8 62 0 82 -9 23 -16 27 -52 27 -29 0 -50 7 -71 25 -40 34 -102 34 -151 1z m104 -36 c18 0 9 -17 -15 -28 -13 -6 -30 -24 -37 -41 -17 -38 -33 -35 -37 6 -2 24 3 36 24 52 15 12 34 19 42 16 7 -3 18 -5 23 -5z m-151 -70 c0 -100 144 -148 212 -71 17 19 28 43 28 61 0 20 5 30 15 30 36 0 6 -80 -45 -123 -46 -39 -90 -44 -147 -16 -48 24 -75 58 -87 112 -5 20 -3 27 9 27 8 0 15 -9 15 -20z m174 -23 c-3 -8 -12 -18 -20 -21 -10 -4 -13 -2 -8 7 21 37 41 47 28 14z"/>
 </g>

</svg>