<!DOCTYPE svg PUBLIC "-//W3C//DTD SVG 20010904//EN" "http://www.w3.org/TR/2001/REC-SVG-20010904/DTD/svg10.dtd">
<svg version="1.0" xmlns="http://www.w3.org/2000/svg" width="100px" height="83px" viewBox="0 0 1000 830" preserveAspectRatio="xMidYMid meet">
<g id="layer101" fill="#6ba53a" stroke="none">
 <path d="M7 823 c-11 -10 -8 -811 2 -817 5 -4 16 -3 25 0 14 5 16 40 16 297 l0 292 153 -153 c84 -83 159 -152 167 -152 8 0 50 35 92 77 l78 78 150 -150 151 -150 -38 -5 c-33 -4 -38 -9 -38 -30 0 -24 2 -25 78 -28 50 -2 84 1 93 9 10 8 14 34 14 83 0 79 -8 100 -36 94 -14 -2 -20 -13 -22 -42 -3 -37 -4 -37 -23 -20 -18 16 -19 33 -19 290 l0 273 73 3 c69 3 72 4 72 28 l0 25 -491 3 c-270 1 -494 -1 -497 -5z m103 -130 c0 -60 -3 -74 -12 -65 -7 7 -20 12 -30 12 -15 0 -18 9 -18 65 l0 65 30 0 30 0 0 -77z m230 -115 l0 -193 -90 90 -90 90 0 102 0 103 90 0 90 0 0 -192z m170 54 l0 -138 -55 -54 -55 -54 0 192 0 192 55 0 55 0 0 -138z m290 -108 l0 -246 -115 108 -115 108 0 138 0 138 115 0 115 0 0 -246z"/>
 </g>

</svg>