<!DOCTYPE svg PUBLIC "-//W3C//DTD SVG 20010904//EN" "http://www.w3.org/TR/2001/REC-SVG-20010904/DTD/svg10.dtd">
<svg version="1.0" xmlns="http://www.w3.org/2000/svg" width="62px" height="73px" viewBox="0 0 620 730" preserveAspectRatio="xMidYMid meet">
<g id="layer101" fill="#acacac" stroke="none">
 <path d="M15 710 c-25 -28 -12 -85 30 -127 l33 -33 -5 -102 c-4 -82 0 -119 15 -178 l20 -75 -29 -33 c-16 -18 -29 -37 -29 -43 0 -19 51 -61 108 -87 49 -23 70 -26 152 -26 82 0 103 3 152 26 57 26 108 68 108 87 0 6 -13 26 -30 44 l-30 35 17 43 c13 33 17 77 17 178 l1 134 32 32 c40 40 53 97 28 125 -17 19 -33 20 -295 20 -262 0 -278 -1 -295 -20z m163 -28 c-1 -4 -12 -29 -23 -55 -11 -26 -26 -47 -33 -47 -22 0 -82 66 -82 89 0 19 6 21 71 21 39 0 69 -4 67 -8z m44 -63 c-14 -55 -20 -65 -34 -60 -16 6 -15 12 12 70 17 35 32 62 35 60 2 -3 -4 -34 -13 -70z m124 28 l10 -43 -48 0 c-39 0 -47 3 -44 15 3 9 8 28 12 44 5 21 12 27 33 27 24 0 29 -5 37 -43z m78 -28 c23 -54 24 -57 6 -62 -15 -4 -21 6 -34 59 -9 35 -16 66 -16 71 0 16 20 -15 44 -68z m156 50 c0 -24 -60 -89 -83 -89 -8 0 -23 21 -33 47 -11 27 -20 51 -22 55 -2 5 28 8 67 8 65 0 71 -2 71 -21z m-222 -121 c24 -24 12 -33 -48 -33 -35 0 -60 4 -60 11 0 20 24 34 60 34 20 0 41 -5 48 -12z m-175 -30 c27 -10 37 -41 17 -53 -17 -10 -58 -98 -66 -141 l-8 -39 -7 30 c-9 40 -10 141 -2 188 4 30 9 37 22 32 9 -4 28 -12 44 -17z m323 -24 c8 -58 -1 -188 -16 -232 -7 -17 -18 -32 -26 -32 -8 0 -27 -9 -43 -21 -36 -26 -96 -39 -145 -31 -34 6 -37 9 -23 20 9 8 49 18 89 23 40 5 85 14 100 20 32 13 52 56 42 95 -9 37 -50 121 -64 129 -23 14 -9 43 28 58 52 21 50 22 58 -29z m-136 -40 c40 -34 70 -94 70 -138 0 -40 0 -40 -114 -56 -43 -5 -81 -17 -98 -30 -16 -11 -33 -18 -38 -15 -6 3 -10 35 -10 71 0 75 22 127 70 168 40 33 80 33 120 0z m-137 -304 c58 -21 67 -29 44 -41 -21 -12 -23 -39 -2 -39 8 0 15 -7 15 -15 0 -13 -7 -15 -37 -9 -43 7 -109 34 -138 57 -20 15 -20 16 10 47 19 20 35 28 45 24 8 -4 36 -15 63 -24z m263 -1 c29 -30 29 -31 9 -46 -29 -23 -95 -50 -137 -57 -31 -6 -38 -4 -38 9 0 8 7 15 15 15 20 0 19 27 -1 38 -20 11 -10 32 14 32 9 0 35 9 57 19 52 25 47 26 81 -10z"/>
 </g>

</svg>