<!DOCTYPE svg PUBLIC "-//W3C//DTD SVG 20010904//EN" "http://www.w3.org/TR/2001/REC-SVG-20010904/DTD/svg10.dtd">
<svg version="1.0" xmlns="http://www.w3.org/2000/svg" width="42px" height="90px" viewBox="0 0 420 900" preserveAspectRatio="xMidYMid meet">
<g id="layer101" fill="#acacac" stroke="none">
 <path d="M107 893 c-4 -3 -7 -31 -7 -62 0 -116 -10 -157 -41 -175 -40 -23 -59 -65 -59 -126 0 -61 20 -103 59 -126 25 -15 28 -22 24 -50 -10 -62 54 -120 123 -112 21 2 30 0 25 -5 -5 -5 -28 -11 -52 -12 -59 -5 -90 -38 -97 -103 -4 -44 -1 -53 26 -83 29 -32 34 -34 95 -34 55 0 69 4 90 23 28 26 42 58 51 113 4 20 22 54 42 78 25 29 33 46 26 53 -11 11 -116 7 -146 -7 -17 -7 -17 -6 -6 16 10 18 11 79 6 269 -4 135 -9 269 -13 298 l-6 52 -67 0 c-37 0 -70 -3 -73 -7z m97 -145 c8 -117 8 -443 0 -451 -4 -3 -19 0 -35 9 -32 16 -38 44 -14 64 8 7 15 25 15 41 0 26 -3 29 -34 29 -40 0 -86 46 -86 86 0 46 36 93 71 94 20 0 29 39 29 125 0 75 6 95 30 95 14 0 18 -14 24 -92z m91 -573 c-8 -22 -14 -49 -15 -61 -1 -55 -95 -80 -132 -35 -12 15 -16 31 -12 45 12 41 26 48 76 44 26 -3 48 -1 48 3 0 11 40 52 45 47 2 -2 -2 -22 -10 -43z"/>
 </g>

</svg>