<!DOCTYPE svg PUBLIC "-//W3C//DTD SVG 20010904//EN" "http://www.w3.org/TR/2001/REC-SVG-20010904/DTD/svg10.dtd">
<svg version="1.0" xmlns="http://www.w3.org/2000/svg" width="104px" height="79px" viewBox="0 0 1040 790" preserveAspectRatio="xMidYMid meet">
<g id="layer101" fill="#acacac" stroke="none">
 <path d="M460 775 c-104 -34 -220 -145 -256 -245 -11 -31 -47 -82 -99 -142 -108 -124 -126 -177 -86 -263 25 -55 66 -90 129 -110 114 -37 250 22 269 118 3 15 15 34 27 42 19 14 22 13 44 -15 29 -38 81 -41 112 -8 23 25 25 42 9 86 -7 21 -7 42 1 71 10 40 11 41 34 26 26 -17 79 -21 154 -10 l52 7 0 -44 c0 -23 4 -49 9 -57 14 -21 76 -5 101 26 23 30 25 62 5 117 -8 24 -9 34 -2 27 20 -20 57 -13 69 14 9 19 8 29 -6 50 -9 14 -21 25 -26 25 -5 0 -19 18 -30 40 -26 51 -52 66 -90 50 -16 -7 -36 -20 -46 -31 -26 -29 -29 -24 -26 33 7 120 -80 199 -228 205 -47 2 -92 -3 -120 -12z m232 -64 c26 -16 51 -39 57 -50 20 -36 13 -118 -14 -171 -14 -27 -25 -56 -25 -65 0 -29 36 -16 56 20 13 25 27 37 50 41 18 3 42 17 55 30 12 13 26 24 30 24 6 0 49 -65 49 -75 0 -2 -15 1 -32 6 -18 5 -42 6 -53 3 -46 -14 -85 -37 -85 -50 0 -20 49 -36 87 -29 25 4 34 1 47 -17 19 -27 21 -79 4 -96 -17 -17 -29 -15 -22 3 10 25 -5 83 -23 89 -9 4 -49 1 -88 -5 -39 -7 -83 -9 -97 -6 -38 10 -56 65 -55 165 1 86 -3 98 -27 89 -19 -8 -32 -107 -18 -147 9 -23 7 -43 -6 -87 -10 -33 -17 -89 -16 -130 1 -74 -12 -97 -37 -67 -9 11 -9 24 1 59 14 51 9 170 -9 188 -8 8 -27 8 -69 -1 -32 -7 -75 -12 -95 -12 -27 0 -37 -4 -37 -16 0 -29 21 -54 44 -54 33 0 56 -30 59 -80 1 -35 -3 -49 -20 -67 -13 -12 -23 -31 -23 -42 0 -25 -44 -77 -81 -96 -35 -19 -110 -19 -153 -1 -18 7 -47 31 -64 52 -26 31 -32 48 -32 86 0 50 0 50 111 178 31 36 70 95 87 132 17 37 52 90 79 119 76 81 134 107 244 108 67 1 80 -2 121 -28z m-200 -373 c2 -37 -3 -79 -12 -102 -8 -18 -9 -17 -8 9 0 17 -3 49 -7 73 -6 35 -5 42 9 42 9 0 17 -9 18 -22z"/>
 <path d="M334 565 c-10 -26 4 -32 83 -39 43 -3 95 -9 116 -12 33 -5 37 -4 37 15 0 16 -11 24 -52 36 -68 20 -177 20 -184 0z"/>
 </g>

</svg>