<!DOCTYPE svg PUBLIC "-//W3C//DTD SVG 20010904//EN" "http://www.w3.org/TR/2001/REC-SVG-20010904/DTD/svg10.dtd">
<svg version="1.0" xmlns="http://www.w3.org/2000/svg" width="65px" height="88px" viewBox="0 0 650 880" preserveAspectRatio="xMidYMid meet">
<g id="layer101" fill="#acacac" stroke="none">
 <path d="M22 858 c2 -15 11 -24 25 -26 19 -3 22 -11 25 -50 l3 -47 145 -5 c126 -4 137 -6 86 -13 -33 -4 -79 -16 -102 -26 -56 -25 -127 -91 -149 -140 -9 -22 -26 -41 -36 -44 -11 -3 -19 -14 -19 -26 0 -21 3 -21 168 -19 159 3 167 4 167 23 0 17 -8 21 -60 25 l-60 5 42 23 c23 12 56 22 72 22 26 0 30 -4 33 -32 3 -32 4 -33 58 -38 54 -5 55 -6 69 -47 17 -49 5 -106 -32 -149 l-23 -27 -49 72 c-27 39 -55 71 -62 71 -18 0 -123 -78 -123 -91 0 -6 27 -48 59 -94 33 -46 61 -96 63 -112 2 -17 9 -28 18 -28 21 0 45 -36 42 -62 -5 -37 33 -29 110 24 51 35 68 52 68 70 0 14 -6 23 -15 23 -10 0 -3 12 20 35 56 57 78 109 83 201 6 111 -13 167 -84 243 -36 39 -54 67 -54 84 0 23 4 26 43 29 l42 3 3 47 c3 39 6 47 25 50 14 2 23 11 25 26 l3 22 -316 0 -316 0 3 -22z m528 -53 l0 -25 -215 0 -215 0 0 25 0 25 215 0 215 0 0 -25z m-90 -170 c0 -95 0 -95 -25 -95 -25 0 -25 0 -25 95 0 95 0 95 25 95 25 0 25 0 25 -95z m-100 5 c0 -28 -2 -30 -40 -30 -49 0 -104 -27 -144 -69 -28 -29 -76 -43 -76 -21 0 14 57 77 93 102 31 22 104 46 145 47 18 1 22 -4 22 -29z m217 -130 c9 -19 19 -65 21 -101 5 -74 -14 -129 -63 -187 l-28 -33 -11 23 c-10 19 -9 28 9 53 48 66 58 151 25 224 -11 24 -20 60 -20 80 l1 36 24 -30 c14 -16 33 -46 42 -65z m-208 -242 c45 -65 48 -73 33 -85 -28 -21 -37 -15 -88 58 -47 68 -48 71 -29 85 10 8 22 14 26 14 4 0 30 -32 58 -72z m90 -177 l-24 -20 -17 22 c-16 21 -16 23 5 39 21 16 23 16 41 -2 19 -19 19 -19 -5 -39z"/>
 </g>

</svg>