	<svg style="display: none">
		<symbol viewBox="0 0 1040 790" id="second_1">
			 <path d="M460 775 c-104 -34 -220 -145 -256 -245 -11 -31 -47 -82 -99 -142 -108 -124 -126 -177 -86 -263 25 -55 66 -90 129 -110 114 -37 250 22 269 118 3 15 15 34 27 42 19 14 22 13 44 -15 29 -38 81 -41 112 -8 23 25 25 42 9 86 -7 21 -7 42 1 71 10 40 11 41 34 26 26 -17 79 -21 154 -10 l52 7 0 -44 c0 -23 4 -49 9 -57 14 -21 76 -5 101 26 23 30 25 62 5 117 -8 24 -9 34 -2 27 20 -20 57 -13 69 14 9 19 8 29 -6 50 -9 14 -21 25 -26 25 -5 0 -19 18 -30 40 -26 51 -52 66 -90 50 -16 -7 -36 -20 -46 -31 -26 -29 -29 -24 -26 33 7 120 -80 199 -228 205 -47 2 -92 -3 -120 -12z m232 -64 c26 -16 51 -39 57 -50 20 -36 13 -118 -14 -171 -14 -27 -25 -56 -25 -65 0 -29 36 -16 56 20 13 25 27 37 50 41 18 3 42 17 55 30 12 13 26 24 30 24 6 0 49 -65 49 -75 0 -2 -15 1 -32 6 -18 5 -42 6 -53 3 -46 -14 -85 -37 -85 -50 0 -20 49 -36 87 -29 25 4 34 1 47 -17 19 -27 21 -79 4 -96 -17 -17 -29 -15 -22 3 10 25 -5 83 -23 89 -9 4 -49 1 -88 -5 -39 -7 -83 -9 -97 -6 -38 10 -56 65 -55 165 1 86 -3 98 -27 89 -19 -8 -32 -107 -18 -147 9 -23 7 -43 -6 -87 -10 -33 -17 -89 -16 -130 1 -74 -12 -97 -37 -67 -9 11 -9 24 1 59 14 51 9 170 -9 188 -8 8 -27 8 -69 -1 -32 -7 -75 -12 -95 -12 -27 0 -37 -4 -37 -16 0 -29 21 -54 44 -54 33 0 56 -30 59 -80 1 -35 -3 -49 -20 -67 -13 -12 -23 -31 -23 -42 0 -25 -44 -77 -81 -96 -35 -19 -110 -19 -153 -1 -18 7 -47 31 -64 52 -26 31 -32 48 -32 86 0 50 0 50 111 178 31 36 70 95 87 132 17 37 52 90 79 119 76 81 134 107 244 108 67 1 80 -2 121 -28z m-200 -373 c2 -37 -3 -79 -12 -102 -8 -18 -9 -17 -8 9 0 17 -3 49 -7 73 -6 35 -5 42 9 42 9 0 17 -9 18 -22z"/>
			 <path d="M334 565 c-10 -26 4 -32 83 -39 43 -3 95 -9 116 -12 33 -5 37 -4 37 15 0 16 -11 24 -52 36 -68 20 -177 20 -184 0z"/>
		</symbol>

		<symbol viewBox="0 0 420 900" id="second_2">
			 <path d="M107 893 c-4 -3 -7 -31 -7 -62 0 -116 -10 -157 -41 -175 -40 -23 -59 -65 -59 -126 0 -61 20 -103 59 -126 25 -15 28 -22 24 -50 -10 -62 54 -120 123 -112 21 2 30 0 25 -5 -5 -5 -28 -11 -52 -12 -59 -5 -90 -38 -97 -103 -4 -44 -1 -53 26 -83 29 -32 34 -34 95 -34 55 0 69 4 90 23 28 26 42 58 51 113 4 20 22 54 42 78 25 29 33 46 26 53 -11 11 -116 7 -146 -7 -17 -7 -17 -6 -6 16 10 18 11 79 6 269 -4 135 -9 269 -13 298 l-6 52 -67 0 c-37 0 -70 -3 -73 -7z m97 -145 c8 -117 8 -443 0 -451 -4 -3 -19 0 -35 9 -32 16 -38 44 -14 64 8 7 15 25 15 41 0 26 -3 29 -34 29 -40 0 -86 46 -86 86 0 46 36 93 71 94 20 0 29 39 29 125 0 75 6 95 30 95 14 0 18 -14 24 -92z m91 -573 c-8 -22 -14 -49 -15 -61 -1 -55 -95 -80 -132 -35 -12 15 -16 31 -12 45 12 41 26 48 76 44 26 -3 48 -1 48 3 0 11 40 52 45 47 2 -2 -2 -22 -10 -43z"/>
		</symbol>

		<symbol viewBox="0 0 650 880" id="second_3">
			 <path d="M22 858 c2 -15 11 -24 25 -26 19 -3 22 -11 25 -50 l3 -47 145 -5 c126 -4 137 -6 86 -13 -33 -4 -79 -16 -102 -26 -56 -25 -127 -91 -149 -140 -9 -22 -26 -41 -36 -44 -11 -3 -19 -14 -19 -26 0 -21 3 -21 168 -19 159 3 167 4 167 23 0 17 -8 21 -60 25 l-60 5 42 23 c23 12 56 22 72 22 26 0 30 -4 33 -32 3 -32 4 -33 58 -38 54 -5 55 -6 69 -47 17 -49 5 -106 -32 -149 l-23 -27 -49 72 c-27 39 -55 71 -62 71 -18 0 -123 -78 -123 -91 0 -6 27 -48 59 -94 33 -46 61 -96 63 -112 2 -17 9 -28 18 -28 21 0 45 -36 42 -62 -5 -37 33 -29 110 24 51 35 68 52 68 70 0 14 -6 23 -15 23 -10 0 -3 12 20 35 56 57 78 109 83 201 6 111 -13 167 -84 243 -36 39 -54 67 -54 84 0 23 4 26 43 29 l42 3 3 47 c3 39 6 47 25 50 14 2 23 11 25 26 l3 22 -316 0 -316 0 3 -22z m528 -53 l0 -25 -215 0 -215 0 0 25 0 25 215 0 215 0 0 -25z m-90 -170 c0 -95 0 -95 -25 -95 -25 0 -25 0 -25 95 0 95 0 95 25 95 25 0 25 0 25 -95z m-100 5 c0 -28 -2 -30 -40 -30 -49 0 -104 -27 -144 -69 -28 -29 -76 -43 -76 -21 0 14 57 77 93 102 31 22 104 46 145 47 18 1 22 -4 22 -29z m217 -130 c9 -19 19 -65 21 -101 5 -74 -14 -129 -63 -187 l-28 -33 -11 23 c-10 19 -9 28 9 53 48 66 58 151 25 224 -11 24 -20 60 -20 80 l1 36 24 -30 c14 -16 33 -46 42 -65z m-208 -242 c45 -65 48 -73 33 -85 -28 -21 -37 -15 -88 58 -47 68 -48 71 -29 85 10 8 22 14 26 14 4 0 30 -32 58 -72z m90 -177 l-24 -20 -17 22 c-16 21 -16 23 5 39 21 16 23 16 41 -2 19 -19 19 -19 -5 -39z"/>
		</symbol>

		<symbol viewBox="0 0 620 730" id="second_4">
			 <path d="M15 710 c-25 -28 -12 -85 30 -127 l33 -33 -5 -102 c-4 -82 0 -119 15 -178 l20 -75 -29 -33 c-16 -18 -29 -37 -29 -43 0 -19 51 -61 108 -87 49 -23 70 -26 152 -26 82 0 103 3 152 26 57 26 108 68 108 87 0 6 -13 26 -30 44 l-30 35 17 43 c13 33 17 77 17 178 l1 134 32 32 c40 40 53 97 28 125 -17 19 -33 20 -295 20 -262 0 -278 -1 -295 -20z m163 -28 c-1 -4 -12 -29 -23 -55 -11 -26 -26 -47 -33 -47 -22 0 -82 66 -82 89 0 19 6 21 71 21 39 0 69 -4 67 -8z m44 -63 c-14 -55 -20 -65 -34 -60 -16 6 -15 12 12 70 17 35 32 62 35 60 2 -3 -4 -34 -13 -70z m124 28 l10 -43 -48 0 c-39 0 -47 3 -44 15 3 9 8 28 12 44 5 21 12 27 33 27 24 0 29 -5 37 -43z m78 -28 c23 -54 24 -57 6 -62 -15 -4 -21 6 -34 59 -9 35 -16 66 -16 71 0 16 20 -15 44 -68z m156 50 c0 -24 -60 -89 -83 -89 -8 0 -23 21 -33 47 -11 27 -20 51 -22 55 -2 5 28 8 67 8 65 0 71 -2 71 -21z m-222 -121 c24 -24 12 -33 -48 -33 -35 0 -60 4 -60 11 0 20 24 34 60 34 20 0 41 -5 48 -12z m-175 -30 c27 -10 37 -41 17 -53 -17 -10 -58 -98 -66 -141 l-8 -39 -7 30 c-9 40 -10 141 -2 188 4 30 9 37 22 32 9 -4 28 -12 44 -17z m323 -24 c8 -58 -1 -188 -16 -232 -7 -17 -18 -32 -26 -32 -8 0 -27 -9 -43 -21 -36 -26 -96 -39 -145 -31 -34 6 -37 9 -23 20 9 8 49 18 89 23 40 5 85 14 100 20 32 13 52 56 42 95 -9 37 -50 121 -64 129 -23 14 -9 43 28 58 52 21 50 22 58 -29z m-136 -40 c40 -34 70 -94 70 -138 0 -40 0 -40 -114 -56 -43 -5 -81 -17 -98 -30 -16 -11 -33 -18 -38 -15 -6 3 -10 35 -10 71 0 75 22 127 70 168 40 33 80 33 120 0z m-137 -304 c58 -21 67 -29 44 -41 -21 -12 -23 -39 -2 -39 8 0 15 -7 15 -15 0 -13 -7 -15 -37 -9 -43 7 -109 34 -138 57 -20 15 -20 16 10 47 19 20 35 28 45 24 8 -4 36 -15 63 -24z m263 -1 c29 -30 29 -31 9 -46 -29 -23 -95 -50 -137 -57 -31 -6 -38 -4 -38 9 0 8 7 15 15 15 20 0 19 27 -1 38 -20 11 -10 32 14 32 9 0 35 9 57 19 52 25 47 26 81 -10z"/>
		</symbol>

		<symbol id="fifth_1" viewBox="0 0 940 930">
			 <path d="M0 905 c0 -24 3 -25 55 -25 l55 0 0 -174 c0 -149 2 -175 16 -180 9 -3 63 -6 121 -6 93 0 109 -3 136 -22 24 -17 46 -23 87 -23 41 0 63 6 87 23 43 30 143 33 143 2 0 -17 -8 -19 -73 -22 l-72 -3 -3 -114 c-2 -75 1 -118 9 -127 9 -11 46 -14 168 -14 86 0 162 4 169 8 9 7 12 39 10 128 l-3 119 -72 3 c-65 3 -73 5 -73 22 0 13 7 20 19 20 51 0 51 0 51 186 l0 174 55 0 c52 0 55 1 55 25 l0 25 -470 0 -470 0 0 -25z m780 -175 l0 -150 -85 0 c-84 0 -85 0 -85 25 0 77 -61 135 -140 135 -79 0 -140 -58 -140 -135 0 -25 -1 -25 -85 -25 l-85 0 0 150 0 150 310 0 310 0 0 -150z m-259 -69 c41 -41 36 -96 -10 -120 -16 -9 -17 -7 -13 14 3 16 11 25 23 25 14 0 19 7 19 25 0 18 -5 25 -19 25 -13 0 -21 8 -23 23 -2 16 -10 22 -28 22 -18 0 -26 -6 -28 -22 -2 -15 -10 -23 -23 -23 -14 0 -19 -7 -19 -25 0 -18 5 -25 19 -25 12 0 20 -9 23 -25 4 -21 3 -23 -13 -14 -23 12 -39 41 -39 69 0 28 52 80 80 80 12 0 35 -13 51 -29z m329 -306 l0 -75 -120 0 -120 0 0 75 0 75 120 0 120 0 0 -75z"/>
			 <path d="M11 606 c-10 -11 -2 -35 39 -115 65 -130 83 -143 193 -139 77 3 80 4 113 41 40 44 43 80 7 85 -13 2 -23 -2 -23 -8 0 -6 -11 -22 -25 -35 -20 -21 -34 -25 -83 -25 -71 0 -83 11 -137 120 -46 91 -60 105 -84 76z"/>
			 <path d="M157 296 c-21 -14 -54 -26 -79 -28 l-43 -3 -3 -45 c-5 -70 6 -108 46 -152 46 -51 85 -68 157 -68 103 0 176 60 196 161 8 39 8 62 0 82 -9 23 -16 27 -52 27 -29 0 -50 7 -71 25 -40 34 -102 34 -151 1z m104 -36 c18 0 9 -17 -15 -28 -13 -6 -30 -24 -37 -41 -17 -38 -33 -35 -37 6 -2 24 3 36 24 52 15 12 34 19 42 16 7 -3 18 -5 23 -5z m-151 -70 c0 -100 144 -148 212 -71 17 19 28 43 28 61 0 20 5 30 15 30 36 0 6 -80 -45 -123 -46 -39 -90 -44 -147 -16 -48 24 -75 58 -87 112 -5 20 -3 27 9 27 8 0 15 -9 15 -20z m174 -23 c-3 -8 -12 -18 -20 -21 -10 -4 -13 -2 -8 7 21 37 41 47 28 14z"/>
		</symbol>

		<symbol viewBox="0 0 770 890" id="fifth_2">
			 <path d="M0 445 l0 -445 350 0 350 0 0 114 c0 73 4 117 11 122 6 3 20 25 30 48 33 73 20 172 -31 229 l-28 32 44 87 c24 48 44 94 44 102 0 8 -16 20 -35 26 -35 11 -35 12 -35 71 l0 59 -350 0 -350 0 0 -445z m660 374 c0 -28 -3 -31 -24 -25 -23 6 -25 2 -48 -97 -22 -95 -25 -102 -49 -105 -25 -3 -27 0 -49 103 -14 62 -28 104 -34 102 -6 -3 -44 -15 -84 -28 -57 -18 -71 -27 -66 -39 3 -8 8 -21 11 -27 4 -10 -16 -13 -81 -13 -85 0 -86 0 -86 -25 0 -25 0 -25 98 -25 l99 0 22 -48 23 -48 -24 -37 -23 -36 -97 -1 c-98 0 -98 0 -98 -25 0 -25 1 -25 88 -25 l87 0 1 -53 c0 -28 8 -67 18 -84 l17 -33 -106 0 -105 0 0 -25 0 -25 124 0 c104 0 131 -3 171 -21 38 -17 61 -20 114 -17 36 3 74 8 84 13 15 6 17 0 17 -64 l0 -71 -310 0 -310 0 0 405 0 405 310 0 310 0 0 -31z m-215 -160 c13 -52 15 -73 6 -82 -6 -6 -12 -9 -13 -6 -7 10 -68 140 -68 143 0 5 26 13 46 15 7 0 20 -31 29 -70z m263 56 c2 -2 -13 -35 -32 -74 -24 -47 -40 -69 -50 -65 -11 4 -11 15 1 67 22 94 20 90 51 82 15 -4 28 -8 30 -10z m-126 -175 c75 -21 128 -87 128 -160 0 -183 -240 -241 -319 -77 -26 55 -26 89 0 144 27 56 77 90 149 102 3 1 22 -4 42 -9z"/>
			 <path d="M455 449 c7 -49 6 -52 -30 -89 l-38 -39 52 -7 c50 -6 54 -9 74 -50 11 -24 24 -44 27 -44 3 0 16 20 27 44 20 41 24 44 73 50 l52 7 -37 40 c-34 38 -35 42 -29 89 4 28 3 50 -1 50 -4 0 -24 -9 -45 -21 l-37 -21 -41 21 c-23 12 -44 21 -48 21 -3 0 -3 -23 1 -51z m115 -56 c0 -6 3 -18 6 -27 4 -11 1 -16 -10 -16 -9 0 -16 -5 -16 -10 0 -9 -10 -5 -49 17 -2 2 2 9 8 17 7 8 10 19 7 24 -3 5 8 9 24 8 17 -1 30 -6 30 -13z"/>
		</symbol>

		<symbol viewBox="0 0 1000 830" id="fifth_3">
			 <path d="M7 823 c-11 -10 -8 -811 2 -817 5 -4 16 -3 25 0 14 5 16 40 16 297 l0 292 153 -153 c84 -83 159 -152 167 -152 8 0 50 35 92 77 l78 78 150 -150 151 -150 -38 -5 c-33 -4 -38 -9 -38 -30 0 -24 2 -25 78 -28 50 -2 84 1 93 9 10 8 14 34 14 83 0 79 -8 100 -36 94 -14 -2 -20 -13 -22 -42 -3 -37 -4 -37 -23 -20 -18 16 -19 33 -19 290 l0 273 73 3 c69 3 72 4 72 28 l0 25 -491 3 c-270 1 -494 -1 -497 -5z m103 -130 c0 -60 -3 -74 -12 -65 -7 7 -20 12 -30 12 -15 0 -18 9 -18 65 l0 65 30 0 30 0 0 -77z m230 -115 l0 -193 -90 90 -90 90 0 102 0 103 90 0 90 0 0 -192z m170 54 l0 -138 -55 -54 -55 -54 0 192 0 192 55 0 55 0 0 -138z m290 -108 l0 -246 -115 108 -115 108 0 138 0 138 115 0 115 0 0 -246z"/>
		</symbol>

		<symbol viewBox="0 0 610 470" id="quote">
			 <path d="M60 444 c-44 -37 -60 -75 -60 -139 0 -93 62 -191 171 -271 30 -22 57 -34 71 -32 41 6 33 36 -26 98 -31 32 -56 62 -56 67 0 5 20 19 45 31 55 27 85 72 85 130 0 88 -55 142 -147 142 -41 0 -58 -5 -83 -26z"/>
			 <path d="M369 430 c-83 -87 -60 -217 59 -333 104 -102 139 -118 166 -74 9 15 4 24 -36 60 -25 23 -54 54 -63 69 -16 26 -16 26 19 38 19 6 49 27 66 46 26 31 30 42 30 96 0 57 -2 63 -39 99 -37 37 -42 39 -101 39 -61 0 -65 -2 -101 -40z"/>
		</symbol>
	</svg>